<svg xmlns="http://www.w3.org/2000/svg" viewBox="0 0 500 500"><g id="freepik--Floor--inject-9"><ellipse cx="250" cy="351.73" rx="234.84" ry="135.59" style="fill:#f5f5f5"></ellipse></g><g id="freepik--Shadows--inject-9"><path d="M349.18,280.74,150.82,395.24a10.74,10.74,0,0,1-10.73,0l-10.47-6a3.86,3.86,0,0,1,0-6.69L328,268a10.74,10.74,0,0,1,10.72,0l10.47,6.05A3.87,3.87,0,0,1,349.18,280.74Z" style="fill:#e0e0e0"></path><ellipse cx="318.78" cy="384.56" rx="42.65" ry="24.62" style="fill:#e0e0e0"></ellipse><ellipse cx="401.36" cy="296.74" rx="33.39" ry="19.28" style="fill:#e0e0e0"></ellipse><ellipse cx="98.92" cy="417.13" rx="33.39" ry="19.28" style="fill:#e0e0e0"></ellipse></g><g id="freepik--Window--inject-9"><path d="M137.76,162.35,339,46.18c2.31-1.33,4.38-1.23,5.85,0l7,4.82L347,56.86V219.11c0,5.95-3.61,12.85-8.07,15.43l-199.2,115-.37,6.33-7.34-5c-1.46-1.1-2.36-3.27-2.36-6.24V177.77C129.69,171.82,133.3,164.92,137.76,162.35Z" style="fill:#BD93F9"></path><path d="M137.76,162.35,339,46.18c2.31-1.33,4.38-1.23,5.85,0l7,4.82L347,56.86V219.11c0,5.95-3.61,12.85-8.07,15.43l-199.2,115-.37,6.33-7.34-5c-1.46-1.1-2.36-3.27-2.36-6.24V177.77C129.69,171.82,133.3,164.92,137.76,162.35Z" style="fill:#fff;opacity:0.4"></path><path d="M136.54,349.31V182.48a20.15,20.15,0,0,1,2.71-9.59l-7.19-4.12a20.08,20.08,0,0,0-2.37,9V344.6c0,3,.9,5.14,2.36,6.24l6.76,4.63C137.41,354.35,136.54,352.22,136.54,349.31Z" style="fill:#BD93F9"></path><path d="M136.54,349.31V182.48a20.15,20.15,0,0,1,2.71-9.59l-7.19-4.12a20.08,20.08,0,0,0-2.37,9V344.6c0,3,.9,5.14,2.36,6.24l6.76,4.63C137.41,354.35,136.54,352.22,136.54,349.31Z" style="fill:#fff;opacity:0.2"></path><path d="M139.28,355.8l.11.07h0Z" style="fill:#BD93F9;opacity:0.30000000000000004"></path><path d="M144.61,355.42l201.2-116.17c4.46-2.57,8.07-9.48,8.07-15.42V57c0-5.94-3.61-8.67-8.07-6.1L144.61,167.06c-4.46,2.58-8.07,9.48-8.07,15.42V349.31C136.54,355.26,140.15,358,144.61,355.42Z" style="fill:#BD93F9"></path><path d="M144.61,355.42l201.2-116.17c4.46-2.57,8.07-9.48,8.07-15.42V57c0-5.94-3.61-8.67-8.07-6.1L144.61,167.06c-4.46,2.58-8.07,9.48-8.07,15.42V349.31C136.54,355.26,140.15,358,144.61,355.42Z" style="fill:#BD93F9"></path><path d="M144.61,355.42l201.2-116.17c4.46-2.57,8.07-9.48,8.07-15.42V57c0-5.94-3.61-8.67-8.07-6.1L144.61,167.06c-4.46,2.58-8.07,9.48-8.07,15.42V349.31C136.54,355.26,140.15,358,144.61,355.42Z" style="fill:#fff;opacity:0.7000000000000001"></path><path d="M144.61,167.06,345.81,50.9c4.46-2.57,8.07.16,8.07,6.1v8.16L136.54,190.64v-8.16C136.54,176.54,140.15,169.64,144.61,167.06Z" style="fill:#BD93F9"></path><path d="M144.61,167.06,345.81,50.9c4.46-2.57,8.07.16,8.07,6.1v8.16L136.54,190.64v-8.16C136.54,176.54,140.15,169.64,144.61,167.06Z" style="fill:#fff;opacity:0.5"></path><path d="M349,50.72c2.47,0,4.08,2.47,4.08,6.28V223.83c0,5.68-3.45,12.3-7.68,14.74L144.22,354.73a5.63,5.63,0,0,1-2.81.87c-2.48,0-4.08-2.47-4.08-6.29V182.48c0-5.68,3.44-12.29,7.68-14.74L346.21,51.58a5.68,5.68,0,0,1,2.81-.86m0-.79a6.45,6.45,0,0,0-3.21,1L144.61,167.06c-4.46,2.58-8.07,9.48-8.07,15.42V349.31c0,4.43,2,7.07,4.87,7.07a6.52,6.52,0,0,0,3.2-1l201.2-116.17c4.46-2.57,8.07-9.48,8.07-15.42V57c0-4.42-2-7.07-4.86-7.07Z" style="fill:#BD93F9"></path><path d="M154.65,310.51a2.1,2.1,0,0,1-1.05-3.92L214,271.72a2.1,2.1,0,1,1,2.1,3.63l-60.4,34.87A2,2,0,0,1,154.65,310.51Z" style="fill:#fafafa"></path><path d="M154.65,323.67a2.09,2.09,0,0,1-1.05-3.91l86-49.68a2.1,2.1,0,1,1,2.1,3.64l-86,49.67A2.09,2.09,0,0,1,154.65,323.67Z" style="fill:#fafafa"></path><path d="M250.19,281.68a2.09,2.09,0,0,1-1.05-3.91l59.51-34.36a2.1,2.1,0,1,1,2.1,3.63L251.23,281.4A2.08,2.08,0,0,1,250.19,281.68Z" style="fill:#fafafa"></path><path d="M154.65,336.84a2.1,2.1,0,0,1-1.05-3.92l76.77-44.32a2.1,2.1,0,0,1,2.1,3.64L155.7,336.56A2.09,2.09,0,0,1,154.65,336.84Z" style="fill:#fafafa"></path><path d="M154.65,201.19a2.1,2.1,0,0,1-1.05-3.92L214,162.4a2.1,2.1,0,1,1,2.1,3.63l-60.4,34.88A2.09,2.09,0,0,1,154.65,201.19Z" style="fill:#fafafa"></path><path d="M154.65,214.36a2.1,2.1,0,0,1-1.05-3.92l86-49.67a2.1,2.1,0,1,1,2.1,3.63l-86,49.67A2,2,0,0,1,154.65,214.36Z" style="fill:#fafafa"></path><path d="M250.19,172.37a2.1,2.1,0,0,1-1.05-3.92l59.51-34.36a2.1,2.1,0,1,1,2.1,3.63l-59.52,34.36A2,2,0,0,1,250.19,172.37Z" style="fill:#fafafa"></path><path d="M154.65,227.52a2.09,2.09,0,0,1-1.05-3.91l76.77-44.32a2.1,2.1,0,0,1,2.1,3.63L155.7,227.24A2.09,2.09,0,0,1,154.65,227.52Z" style="fill:#fafafa"></path><path d="M153.67,172.14a6.66,6.66,0,0,1-3,5.23c-1.67,1-3,.18-3-1.74a6.66,6.66,0,0,1,3-5.23C152.32,169.43,153.67,170.21,153.67,172.14Z" style="fill:#fff"></path><path d="M164.32,166a6.66,6.66,0,0,1-3,5.23c-1.67,1-3,.18-3-1.74a6.66,6.66,0,0,1,3-5.23C163,163.28,164.32,164.06,164.32,166Z" style="fill:#fff"></path><path d="M175,159.84a6.66,6.66,0,0,1-3,5.23c-1.67,1-3,.18-3-1.74a6.66,6.66,0,0,1,3-5.23C173.62,157.13,175,157.91,175,159.84Z" style="fill:#fff"></path></g><g id="freepik--character-1--inject-9"><path d="M105.27,394.07l.78,8.07s.87,1.66,4.88,1.66,3.12-3.42,3.12-3.42l.39-6.31Z" style="fill:#ffa8a7"></path><path d="M117.3,312.38c0,4.19-.39,45.09-.42,47.83a2.81,2.81,0,0,1,0,.29c-.16,2.28-2.14,30.32-2.43,33.57,0,0-4.78,3.64-9.17,0,0,0-1.18-9.89-1.57-12.82s-1.86-16,0-20.31l-4.78-24.79V316.24Z" style="fill:#37474f"></path><path d="M111.88,318.66s-1,6.26-8.18,9.68l-3.15,16.25L98.92,337V319.26Z" style="fill:#263238"></path><path d="M74.61,400.38l-.78,6s2.09,5.45,8.47,2.82l1.17-6.24Z" style="fill:#ffa8a7"></path><path d="M83.47,313.11c-.44,4.68-1.73,16.59-2.22,32s-.49,15.32-.49,15.32a42.92,42.92,0,0,0-3.55,11.91c-.61,5.78-2.6,28-2.6,28a9,9,0,0,0,8.86,2.54l11.78-37a21.87,21.87,0,0,0,.73-3.08l5.77-36.37s10.06-1.36,12.3-14.35Z" style="fill:#37474f"></path><polygon points="120.52 284.33 131.86 293.41 131.86 280.23 127.84 276.13 120.52 284.33" style="fill:#f28f8f"></polygon><path d="M109.46,263.76a10.84,10.84,0,0,1,7.48,2.27c3.51,2.78,10.9,10.1,10.9,10.1a9.88,9.88,0,0,1-7.32,8.2l-7.25-5.19Z" style="fill:#BD93F9"></path><path d="M109.46,263.76a10.84,10.84,0,0,1,7.48,2.27c3.51,2.78,10.9,10.1,10.9,10.1a9.88,9.88,0,0,1-7.32,8.2l-7.25-5.19Z" style="fill:#fff;opacity:0.2"></path><path d="M94.74,263.83s-7.46.75-10.83,1.48l-1.24,13.46s2.62,15,2.62,17.11-1.82,17.23-1.82,17.23,5.15,3.37,20.14,3.37a27.86,27.86,0,0,0,13.69-4.1V282.47c0-5.82-2.27-15-7.84-18.71h-4.58Z" style="fill:#BD93F9"></path><path d="M94.74,263.83s-7.46.75-10.83,1.48l-1.24,13.46s2.62,15,2.62,17.11-1.82,17.23-1.82,17.23,5.15,3.37,20.14,3.37a27.86,27.86,0,0,0,13.69-4.1V282.47c0-5.82-2.27-15-7.84-18.71h-4.58Z" style="opacity:0.2"></path><polygon points="136.15 304.91 131.86 303.06 131.86 258.59 136.15 260.44 136.15 304.91" style="fill:#BD93F9"></polygon><polygon points="136.15 304.91 131.86 303.06 131.86 258.59 136.15 260.44 136.15 304.91" style="opacity:0.6000000000000001"></polygon><polygon points="236.47 202.4 136.15 260.44 131.86 258.59 232.17 200.55 236.47 202.4" style="fill:#BD93F9"></polygon><polygon points="236.47 202.4 136.15 260.44 131.86 258.59 232.17 200.55 236.47 202.4" style="opacity:0.4"></polygon><polygon points="236.47 246.87 136.15 304.91 136.15 260.44 236.47 202.4 236.47 246.87" style="fill:#BD93F9"></polygon><polygon points="236.47 246.87 136.15 304.91 136.15 260.44 236.47 202.4 236.47 246.87" style="opacity:0.30000000000000004"></polygon><text transform="matrix(0.87, -0.5, 0, 1, 152.89, 282.47)" style="font-size:29.17784881591797px;fill:#fff;font-family:Montserrat-Black, Montserrat;font-weight:800;letter-spacing:0.2000098136532195em">CSS</text><path d="M114,235.46s5.83,5.12.76,16.53l-5.93-15.42Z" style="fill:#263238"></path><path d="M94.74,263.83s2,5.35,7.57,5.35,2.57-5.42,2.57-5.42Z" style="fill:#ffa8a7"></path><polygon points="94.74 263.83 104.88 263.76 104.88 248.25 94.74 248.25 94.74 263.83" style="fill:#ffa8a7"></polygon><path d="M104.88,263.14c-3.74-1.45-8.49-3.85-8.49-6.14l-1.23-7.71h9.72Z" style="fill:#f28f8f"></path><path d="M102.55,232.3c3.58,0,11.18,2,12.06,11.36s-.49,17.32-4.8,17.32c-8.46,0-16.58-1.08-16.65-14.92C93.1,233.85,99.06,232.3,102.55,232.3Z" style="fill:#ffa8a7"></path><path d="M94.75,254.26,96.12,250a.71.71,0,0,0,1.17-.54v-7.55s3.52-1,3.15-3.95c0,0,1.8,1.61,8.7,1.61s8.58-5.85,7.89-9.11c0,0-1.28,1.32-4.93,1.32s-18.84-4.58-19.23,4.6c0,0-1.29-1.88-3.36,0L92.18,238s-3.16-.1-2.67,4.53c.39,3.66,1.91,10.59,2.54,13.36a3.13,3.13,0,0,0,1.29,1.88l1.41.95Z" style="fill:#263238"></path><polygon points="107.93 246.47 107.93 251.99 111.16 250.99 107.93 246.47" style="fill:#f28f8f"></polygon><path d="M102.19,247.42a1.13,1.13,0,1,0,1.12-1.12A1.12,1.12,0,0,0,102.19,247.42Z" style="fill:#263238"></path><path d="M110.6,246.64a1.13,1.13,0,1,0,1.13-1.13A1.13,1.13,0,0,0,110.6,246.64Z" style="fill:#263238"></path><path d="M113.1,244.29l-2.2-1.3s.84-.88,1.68-.35A1.53,1.53,0,0,1,113.1,244.29Z" style="fill:#263238"></path><path d="M101,245.11l2.19-1.31s-.84-.88-1.68-.35A1.54,1.54,0,0,0,101,245.11Z" style="fill:#263238"></path><path d="M109.45,254.22a4.75,4.75,0,0,1-3-.81s-.21,1.6,1.13,1.9A1.73,1.73,0,0,0,109.45,254.22Z" style="fill:#f28f8f"></path><path d="M95.58,248.45c1.27,2.21.94,4.89-.83,5.81-1.15.59-4.52-.68-5.79-2.89s-.56-4.1,1.17-5.1S94.3,246.24,95.58,248.45Z" style="fill:#ffa8a7"></path><polygon points="96.22 250.09 92.33 245.87 95.13 244.19 96.22 250.09" style="fill:#253239"></polygon><path d="M102,281.41l5.35,5.93s4.37-.62,9.44-.88a87.93,87.93,0,0,0,11.94-2.09s1-4.28,3.14-6v3.35s2.87,1,4.29-.42c2.45-2.41,4.64-4.63,4.64.42,0,7.05-3,9.91-11.1,9.76,0,0-20.45,8.57-25.35,7.61-3-.57-11.24-8.34-11.24-8.34Z" style="fill:#ffa8a7"></path><path d="M80,267.26c3.44-3.5,7.37-1.87,10.82,1.58S102,281.41,102,281.41s-.78,7.11-8.89,9.37c0,0-10.94-11.39-12.34-12.94C78.23,275,76.74,270.6,80,267.26Z" style="fill:#BD93F9"></path><path d="M80,267.26c3.44-3.5,7.37-1.87,10.82,1.58S102,281.41,102,281.41s-.78,7.11-8.89,9.37c0,0-10.94-11.39-12.34-12.94C78.23,275,76.74,270.6,80,267.26Z" style="fill:#fff;opacity:0.2"></path><path d="M152.56,295.44a8.34,8.34,0,0,1,3.08-5.85c4.61-3.52,4.42,0,4.53,1.45s-4.27,6.6-9.07,5.24Z" style="fill:#ffa8a7"></path><path d="M73.83,406.34a5.22,5.22,0,0,0,1,1.48.72.72,0,0,0,1.18-.47,1.89,1.89,0,0,1,1-1.6c.69-.29,6.2-.39,6.25.73A12,12,0,0,1,83,409s.89,7.58,2.58,10.58,4.45,7.85-1.36,9.27-10.2-1.66-10.4-5.76-.1-7-.49-7.71-2.44-1.08-1.66-4.83.9-6,2.4-6.12Z" style="fill:#455a64"></path><path d="M77.79,413.3a.5.5,0,0,1-.43-.22.53.53,0,0,1,.12-.73,6.5,6.5,0,0,1,6.2-.39.52.52,0,1,1-.42,1,5.51,5.51,0,0,0-5.18.29A.52.52,0,0,1,77.79,413.3Z" style="fill:#ebebeb"></path><path d="M78.65,417a.54.54,0,0,1-.43-.22.53.53,0,0,1,.13-.73,6.49,6.49,0,0,1,6.2-.4.54.54,0,0,1,.27.7.53.53,0,0,1-.7.26,5.47,5.47,0,0,0-5.17.29A.47.47,0,0,1,78.65,417Z" style="fill:#ebebeb"></path><path d="M80,420.65a.51.51,0,0,1-.43-.22.53.53,0,0,1,.13-.73,6.5,6.5,0,0,1,6.2-.39.52.52,0,0,1,.27.69.54.54,0,0,1-.69.27,5.52,5.52,0,0,0-5.18.29A.53.53,0,0,1,80,420.65Z" style="fill:#ebebeb"></path><path d="M106.05,402.14a5.91,5.91,0,0,0,3.51,1s-.59-2.31,1.12-3.09,4.44-1.81,5-.88a10.29,10.29,0,0,1,.64,3.32s4.07,3.69,7.09,4.73,7,2.1,6.62,4.89-4.88,6.83-11,4.05-7.22-2.88-9.18-3.18-5.61-.14-5.46-3.41-.13-8.68,1.5-9.12Z" style="fill:#455a64"></path><path d="M113.06,407.14a.58.58,0,0,1-.18,0,.53.53,0,0,1-.32-.67,5.7,5.7,0,0,1,4.68-3.43.52.52,0,0,1,.12,1,4.66,4.66,0,0,0-3.81,2.75A.54.54,0,0,1,113.06,407.14Z" style="fill:#ebebeb"></path><path d="M116.18,409.2l-.17,0a.51.51,0,0,1-.32-.66,5.47,5.47,0,0,1,4.54-3.45.52.52,0,0,1,.13,1,4.51,4.51,0,0,0-3.68,2.74A.53.53,0,0,1,116.18,409.2Z" style="fill:#ebebeb"></path><path d="M120.12,410.83H120a.53.53,0,0,1-.42-.61,4.12,4.12,0,0,1,4.29-3.33.53.53,0,0,1,.51.54.51.51,0,0,1-.54.51,3.11,3.11,0,0,0-3.23,2.47A.53.53,0,0,1,120.12,410.83Z" style="fill:#ebebeb"></path></g><g id="freepik--Clouds--inject-9"><path d="M189.51,83.24,181,88.08v-3c0-.22,0-.43,0-.64s0-.41,0-.61v-.07h0c-.31-4-3.33-5.52-7-3.39a13.53,13.53,0,0,0-4.19,4C169,79,164.56,77,159.22,80.09c-5.94,3.43-10.75,11.76-10.75,18.61v6.45a2.91,2.91,0,0,1-1.45,2.52l-5,2.94a7.19,7.19,0,0,0-3.56,6.22,3,3,0,0,0,4.45,2.57l46.47-26.84a8.13,8.13,0,0,0,4.06-7A2.63,2.63,0,0,0,189.51,83.24Z" style="fill:#e6e6e6"></path><path d="M112.33,93.24,106,96.82V94.59c0-.16,0-.32,0-.47s0-.31,0-.45v0h0c-.23-3-2.46-4.08-5.19-2.51a10,10,0,0,0-3.09,3c-.62-4-3.89-5.45-7.84-3.17a17.58,17.58,0,0,0-8,13.77v4.77a2.15,2.15,0,0,1-1.07,1.86l-3.7,2.17a5.35,5.35,0,0,0-2.64,4.61,2.2,2.2,0,0,0,3.3,1.9l34.38-19.86a6,6,0,0,0,3-5.2A2,2,0,0,0,112.33,93.24Z" style="fill:#e6e6e6"></path></g></svg>